<?xml version="1.0" encoding="UTF-8" standalone="no"?>
<svg
   viewBox="0 0 24 24"
   version="1.1"
   id="svg1"
   sodipodi:docname="connected.svg"
   width="24"
   height="24"
   inkscape:version="1.4.3 (0d15f75042, 2025-12-25)"
   xmlns:inkscape="http://www.inkscape.org/namespaces/inkscape"
   xmlns:sodipodi="http://sodipodi.sourceforge.net/DTD/sodipodi-0.dtd"
   xmlns="http://www.w3.org/2000/svg"
   xmlns:svg="http://www.w3.org/2000/svg">
  <defs
     id="defs1" />
  <sodipodi:namedview
     id="namedview1"
     pagecolor="#ffffff"
     bordercolor="#666666"
     borderopacity="1.0"
     inkscape:showpageshadow="2"
     inkscape:pageopacity="0.0"
     inkscape:pagecheckerboard="0"
     inkscape:deskcolor="#d1d1d1"
     inkscape:zoom="14.602609"
     inkscape:cx="6.7111297"
     inkscape:cy="14.620675"
     inkscape:window-width="1920"
     inkscape:window-height="1022"
     inkscape:window-x="0"
     inkscape:window-y="0"
     inkscape:window-maximized="1"
     inkscape:current-layer="g3"
     showgrid="true">
    <inkscape:grid
       id="grid1"
       units="px"
       originx="0"
       originy="0"
       spacingx="1"
       spacingy="1"
       empcolor="#0099e5"
       empopacity="0.30196078"
       color="#0099e5"
       opacity="0.14901961"
       empspacing="5"
       enabled="true"
       visible="true" />
  </sodipodi:namedview>
  <!-- Font Awesome Free 5.15.4 by @fontawesome - https://fontawesome.com License - https://fontawesome.com/license/free (Icons: CC BY 4.0, Fonts: SIL OFL 1.1, Code: MIT License) -->
  <g
     id="g3">
    <g
       id="g4"
       transform="rotate(45,11.75,12.603553)">
      <path
         id="path1"
         style="fill:#000000;fill-opacity:1;stroke:none;stroke-width:1px;stroke-linecap:butt;stroke-linejoin:miter;stroke-opacity:1"
         d="M -3.0012131 11.000107 L -3.0012131 12.999893 L 2.001015 12.999893 C 2.001015 14.611004 2.2601746 15.924514 3.1680174 16.832356 C 4.0758601 17.740199 5.3893698 17.999359 7.0004809 17.999359 L 9.0002672 17.999359 L 9.0002672 19.999145 L 11.000054 19.999145 L 11.000054 15.82832 L 11.999947 15.82832 L 11.999947 19.999145 L 13.999733 19.999145 L 13.999733 17.999359 L 15.99952 17.999359 C 17.610631 17.999359 18.92414 17.740199 19.831983 16.832356 C 20.739826 15.924514 20.998985 14.611004 20.998985 12.999893 L 26.001213 12.999893 L 26.001213 11.000107 L 20.998985 11.000107 C 20.998985 9.3889955 20.739826 8.0754859 19.831983 7.1676431 C 18.924141 6.2598004 17.610631 6.0006407 15.99952 6.0006407 L 13.999733 6.0006407 L 13.999733 4.0008543 L 11.999947 4.0008543 L 11.999947 8.1716795 L 11.000054 8.1716795 L 11.000054 4.0008543 L 9.0002672 4.0008543 L 9.0002672 6.0006407 L 7.0004809 6.0006407 C 5.3893698 6.0006407 4.07586 6.2598004 3.1680174 7.1676431 C 2.2601745 8.0754859 2.001015 9.3889947 2.001015 11.000107 L -3.0012131 11.000107 z M 4.5822309 8.5818567 C 4.9243882 8.2396994 5.611592 8.0004271 7.0004809 8.0004271 L 9.0002672 8.0004271 L 9.0002672 15.999573 L 7.0004809 15.999573 C 5.611592 15.999573 4.9243883 15.7603 4.5822309 15.418143 C 4.2400738 15.075985 4.0008013 14.388782 4.0008013 12.999893 L 4.0008013 11.000107 C 4.0008013 9.6112169 4.2400738 8.9240139 4.5822309 8.5818567 z M 11.000054 10.171466 L 11.999947 10.171466 L 11.999947 13.828534 L 11.000054 13.828534 L 11.000054 10.171466 z M 13.999733 8.0004271 L 15.99952 8.0004271 C 17.388409 8.0004271 18.075611 8.2396994 18.417769 8.5818567 C 18.759926 8.9240139 18.999199 9.6112177 18.999199 11.000107 L 18.999199 12.999893 C 18.999199 14.388782 18.759926 15.075985 18.417769 15.418143 C 18.075611 15.7603 17.388409 15.999573 15.99952 15.999573 L 13.999733 15.999573 L 13.999733 8.0004271 z " />
    </g>
  </g>
</svg>
