<?xml version="1.0" encoding="UTF-8" standalone="no"?>
<!-- Created with Inkscape (http://www.inkscape.org/) -->

<svg
   width="11.11353mm"
   height="8.7307301mm"
   viewBox="0 0 11.11353 8.7307301"
   version="1.1"
   id="svg1"
   xml:space="preserve"
   inkscape:version="1.3.2 (091e20ef0f, 2023-11-25)"
   sodipodi:docname="mysoch-hamburger.svg"
   xmlns:inkscape="http://www.inkscape.org/namespaces/inkscape"
   xmlns:sodipodi="http://sodipodi.sourceforge.net/DTD/sodipodi-0.dtd"
   xmlns="http://www.w3.org/2000/svg"
   xmlns:svg="http://www.w3.org/2000/svg"><sodipodi:namedview
     id="namedview1"
     pagecolor="#7f7f7f"
     bordercolor="#666666"
     borderopacity="1.0"
     inkscape:showpageshadow="2"
     inkscape:pageopacity="0.0"
     inkscape:pagecheckerboard="0"
     inkscape:deskcolor="#d1d1d1"
     inkscape:document-units="mm"
     showgrid="true"
     inkscape:zoom="7.109142"
     inkscape:cx="9.5651487"
     inkscape:cy="28.062458"
     inkscape:window-width="1600"
     inkscape:window-height="842"
     inkscape:window-x="0"
     inkscape:window-y="0"
     inkscape:window-maximized="1"
     inkscape:current-layer="layer1"><inkscape:grid
       id="grid1"
       units="px"
       originx="-2.3812461"
       originy="-1.5875061"
       spacingx="0.26458333"
       spacingy="0.26458333"
       empcolor="#0099e5"
       empopacity="0.30196078"
       color="#0099e5"
       opacity="0.14901961"
       empspacing="5"
       dotted="false"
       gridanglex="30"
       gridanglez="30"
       visible="true" /></sodipodi:namedview><defs
     id="defs1" /><g
     inkscape:label="Layer 1"
     inkscape:groupmode="layer"
     id="layer1"
     transform="translate(-99.03514,-143.60523)"><path
       id="rect1"
       style="color:#000000;fill:#000000;fill-opacity:1;stroke-linecap:round;stroke-linejoin:round;-inkscape-stroke:none"
       d="m 100.09399,143.60523 c -0.581742,0 -1.05885,0.47711 -1.05885,1.05885 v 6.61303 c 0,0.58175 0.477108,1.05885 1.05885,1.05885 h 8.99583 c 0.58175,0 1.05885,-0.4771 1.05885,-1.05885 v -6.61303 c 0,-0.58174 -0.4771,-1.05885 -1.05885,-1.05885 z m 0,0.52968 h 8.99583 c 0.29774,0 0.52917,0.23143 0.52917,0.52917 v 6.61303 c 0,0.29774 -0.23143,0.52969 -0.52917,0.52969 h -8.99583 c -0.297737,0 -0.529683,-0.23195 -0.529683,-0.52969 v -6.61303 c 0,-0.29774 0.231946,-0.52917 0.529683,-0.52917 z m 1.05833,1.5875 v 0.79324 h 6.87917 v -0.79324 z m 0,1.85157 v 0.79323 h 6.87917 v -0.79323 z m 0,1.85157 v 0.7953 h 6.87917 v -0.7953 z" /></g></svg>
