<?xml version="1.0" encoding="UTF-8" standalone="no"?>
<!-- Generated by IcoMoon.io -->

<svg
   version="1.1"
   width="24"
   height="24"
   viewBox="0 0 24 24"
   id="svg6"
   sodipodi:docname="poweroff.svg"
   inkscape:version="1.3.2 (091e20ef0f, 2023-11-25)"
   xml:space="preserve"
   xmlns:inkscape="http://www.inkscape.org/namespaces/inkscape"
   xmlns:sodipodi="http://sodipodi.sourceforge.net/DTD/sodipodi-0.dtd"
   xmlns="http://www.w3.org/2000/svg"
   xmlns:svg="http://www.w3.org/2000/svg"
   xmlns:rdf="http://www.w3.org/1999/02/22-rdf-syntax-ns#"
   xmlns:cc="http://creativecommons.org/ns#"
   xmlns:dc="http://purl.org/dc/elements/1.1/"><metadata
     id="metadata12"><rdf:RDF><cc:Work
         rdf:about=""><dc:format>image/svg+xml</dc:format><dc:type
           rdf:resource="http://purl.org/dc/dcmitype/StillImage" /><dc:title>uniE086</dc:title></cc:Work></rdf:RDF></metadata><defs
     id="defs10" /><sodipodi:namedview
     pagecolor="#ffffff"
     bordercolor="#666666"
     borderopacity="1"
     objecttolerance="10"
     gridtolerance="10"
     guidetolerance="10"
     inkscape:pageopacity="0"
     inkscape:pageshadow="2"
     inkscape:window-width="1600"
     inkscape:window-height="842"
     id="namedview8"
     showgrid="true"
     inkscape:zoom="6.2647493"
     inkscape:cx="1.1173631"
     inkscape:cy="8.8590935"
     inkscape:window-x="0"
     inkscape:window-y="0"
     inkscape:window-maximized="1"
     inkscape:current-layer="path1"
     inkscape:showpageshadow="2"
     inkscape:pagecheckerboard="0"
     inkscape:deskcolor="#d1d1d1"><inkscape:grid
       id="grid1"
       units="px"
       originx="0"
       originy="0"
       spacingx="1"
       spacingy="1"
       empcolor="#0099e5"
       empopacity="0.30196078"
       color="#0099e5"
       opacity="0.14901961"
       empspacing="5"
       dotted="false"
       gridanglex="30"
       gridanglez="30"
       visible="true" /></sodipodi:namedview><title
     id="title2">uniE086</title><g
     transform="matrix(0.13333333,0,0,-0.13333333,-846.99458,857.13155)"
     fill="#000000"
     stroke="none"
     id="g2"><g
       id="path1"
       transform="scale(1,-1)"><path
         id="path2"
         style="color:#000000;fill:#000000;stroke-width:1.23084;stroke-linecap:round;-inkscape-stroke:none"
         d="m 6442.4595,-6407.0637 c -5.1142,0 -9.2314,4.1172 -9.2314,9.2313 v 46.1567 c 0,5.1141 4.1172,9.2313 9.2314,9.2313 5.1141,0 9.2313,-4.1172 9.2313,-9.2313 v -46.1567 c 0,-5.1141 -4.1172,-9.2313 -9.2313,-9.2313 z m 28.5954,26.1975 a 9.8638624,9.8638624 0 0 0 -7.915,4.201 9.8638624,9.8638624 0 0 0 2.416,13.7388 c 14.4338,10.1069 20.624,28.3059 15.3254,45.111 -5.2987,16.8052 -20.8012,28.1808 -38.4218,28.1808 -17.6207,0 -33.1232,-11.3756 -38.4218,-28.1808 -5.2986,-16.8051 0.8734,-35.0041 15.3074,-45.111 a 9.8638624,9.8638624 0 0 0 2.4341,-13.7388 9.8638624,9.8638624 0 0 0 -6.3646,-4.0567 9.8638624,9.8638624 0 0 0 -7.3743,1.6407 c -21.4208,14.9991 -30.6713,42.2577 -22.8078,67.1976 7.8635,24.9397 31.0768,41.9737 57.227,41.9737 26.15,0 49.3636,-17.034 57.2271,-41.9737 7.8634,-24.9399 -1.3869,-52.1985 -22.8079,-67.1976 a 9.8638624,9.8638624 0 0 0 -5.8238,-1.785 z" /></g></g></svg>
