<?xml version="1.0" encoding="UTF-8" standalone="no"?>
<svg
   viewBox="0 0 24 24"
   version="1.1"
   id="svg1"
   sodipodi:docname="question-sign.svg"
   width="24"
   height="24"
   inkscape:version="1.3.2 (091e20ef0f, 2023-11-25)"
   xmlns:inkscape="http://www.inkscape.org/namespaces/inkscape"
   xmlns:sodipodi="http://sodipodi.sourceforge.net/DTD/sodipodi-0.dtd"
   xmlns="http://www.w3.org/2000/svg"
   xmlns:svg="http://www.w3.org/2000/svg">
  <defs
     id="defs1" />
  <sodipodi:namedview
     id="namedview1"
     pagecolor="#ffffff"
     bordercolor="#666666"
     borderopacity="1.0"
     inkscape:showpageshadow="2"
     inkscape:pageopacity="0.0"
     inkscape:pagecheckerboard="0"
     inkscape:deskcolor="#d1d1d1"
     inkscape:zoom="7.3013043"
     inkscape:cx="37.527541"
     inkscape:cy="11.162389"
     inkscape:window-width="1600"
     inkscape:window-height="842"
     inkscape:window-x="0"
     inkscape:window-y="0"
     inkscape:window-maximized="1"
     inkscape:current-layer="svg1" />
  <!-- Font Awesome Free 5.15.4 by @fontawesome - https://fontawesome.com License - https://fontawesome.com/license/free (Icons: CC BY 4.0, Fonts: SIL OFL 1.1, Code: MIT License) -->
  <path
     d="m 20,12 c 0,4.419258 -3.582032,8 -8,8 -4.417968,0 -8,-3.580742 -8,-8 0,-4.4166776 3.582032,-8 8,-8 4.417968,0 8,3.5833224 8,8 z M 12.214678,6.645161 c -1.757968,0 -2.8791942,0.7405489 -3.7596457,2.0567103 -0.1140646,0.1705155 -0.075903,0.4004835 0.087581,0.5244515 l 1.119322,0.8487092 c 0.1679033,0.127323 0.4071287,0.09703 0.5375807,-0.06845 0.576258,-0.7309034 0.971387,-1.154742 1.848484,-1.154742 0.659,0 1.474129,0.4241294 1.474129,1.0631611 0,0.4830969 -0.398807,0.7311939 -1.049484,1.0960009 -0.758838,0.425386 -1.762968,0.954838 -1.762968,2.279322 v 0.129033 c 0,0.213773 0.173323,0.387096 0.387097,0.387096 h 1.806452 c 0.213774,0 0.387097,-0.173323 0.387097,-0.387096 v -0.043 c 0,-0.918129 2.683419,-0.956355 2.683419,-3.4408715 0,-1.8710323 -1.940806,-3.2903228 -3.759064,-3.2903228 z m -0.214678,8 c -0.818226,0 -1.483871,0.665645 -1.483871,1.483871 0,0.818194 0.665645,1.483871 1.483871,1.483871 0.818226,0 1.483871,-0.665677 1.483871,-1.483871 0,-0.818226 -0.665645,-1.483871 -1.483871,-1.483871 z"
     id="path1"
     style="stroke-width:0.0322581" />
</svg>
