<?xml version="1.0" encoding="UTF-8" standalone="no"?>
<!-- Generated by IcoMoon.io -->

<svg
   xmlns:dc="http://purl.org/dc/elements/1.1/"
   xmlns:cc="http://creativecommons.org/ns#"
   xmlns:rdf="http://www.w3.org/1999/02/22-rdf-syntax-ns#"
   xmlns:svg="http://www.w3.org/2000/svg"
   xmlns="http://www.w3.org/2000/svg"
   xmlns:sodipodi="http://sodipodi.sourceforge.net/DTD/sodipodi-0.dtd"
   xmlns:inkscape="http://www.inkscape.org/namespaces/inkscape"
   version="1.1"
   width="24"
   height="24"
   viewBox="0 0 24 24"
   id="svg6"
   sodipodi:docname="plus.svg"
   inkscape:version="0.92.4 (unknown)">
  <metadata
     id="metadata12">
    <rdf:RDF>
      <cc:Work
         rdf:about="">
        <dc:format>image/svg+xml</dc:format>
        <dc:type
           rdf:resource="http://purl.org/dc/dcmitype/StillImage" />
        <dc:title>plus</dc:title>
      </cc:Work>
    </rdf:RDF>
  </metadata>
  <defs
     id="defs10" />
  <sodipodi:namedview
     pagecolor="#ffffff"
     bordercolor="#666666"
     borderopacity="1"
     objecttolerance="10"
     gridtolerance="10"
     guidetolerance="10"
     inkscape:pageopacity="0"
     inkscape:pageshadow="2"
     inkscape:window-width="1280"
     inkscape:window-height="995"
     id="namedview8"
     showgrid="false"
     inkscape:zoom="14.75"
     inkscape:cx="0.54134563"
     inkscape:cy="11.791107"
     inkscape:window-x="1600"
     inkscape:window-y="0"
     inkscape:window-maximized="1"
     inkscape:current-layer="svg6" />
  <title
     id="title2">plus</title>
  <path
     d="m 10.545628,4 h 2.908744 q 0.305437,0 0.516516,0.2110789 0.211079,0.2110789 0.211079,0.5165161 v 5.090438 h 5.090438 q 0.305437,0 0.516516,0.211079 Q 20,10.240191 20,10.545628 v 2.908744 q 0,0.305437 -0.211079,0.516516 -0.211079,0.211079 -0.516516,0.211079 h -5.090438 v 5.090438 q 0,0.305437 -0.211079,0.516516 Q 13.759809,20 13.454372,20 H 10.545628 Q 10.240191,20 10.029112,19.788921 9.8180331,19.577842 9.8180331,19.272405 V 14.181967 H 4.727595 q -0.3054372,0 -0.5165161,-0.211079 Q 4,13.759809 4,13.454372 V 10.545628 Q 4,10.240191 4.2110789,10.029112 4.4221578,9.818033 4.727595,9.818033 H 9.8180331 V 4.727595 q 0,-0.3054372 0.2110789,-0.5165161 Q 10.240191,4 10.545628,4 Z"
     id="path4"
     inkscape:connector-curvature="0"
     style="stroke-width:0.54542357" />
</svg>
